<?xml version="1.0" encoding="UTF-8"?>
<svg id="b" data-name="Capa 2" xmlns="http://www.w3.org/2000/svg" viewBox="0 0 580.37 672.42">
  <g id="c" data-name="Capa 1">
    <g>
      <path d="M580.37,268.91c-.07,33.77-13.82,61.07-43.95,79.44-3.84,2.34-7.85,4.39-12.16,5.68-2.58.78-3.7,2.22-3.92,4.98-2.16,27.53-13.65,50.56-34.6,68.44-15.89,13.56-34.64,20.84-55.59,22.06-7.18.42-7.17.32-5.14,6.88,2.59,8.4,5.2,16.8,7.7,25.23,3.02,10.18-2.35,17.63-12.2,18.16-8.59.46-17.12,2.17-25.65,3.52-8.15,1.29-14.48-1.03-19.58-7.84-15.25-20.33-30.89-40.37-46.19-60.66-14.7-19.5-29.23-39.14-43.67-58.84-2.25-3.06-4.45-3.68-8.02-2.89-22.3,4.93-44.75,8.88-67.74,7.26-35.42-2.49-64.91-16.1-85.06-46.48-3-4.52-5.28-9.66-7.01-14.81-1.2-3.57-2.86-4.62-6.39-4.59-19.76.15-38.83-3.36-56.44-12.56C20.47,283.98,1.88,255.38.13,216.83c-1.81-40.08,14.75-72.17,45.66-97.19,2.25-1.82,3.94-3.84,5.11-6.56,12.3-28.56,33.53-48.72,60.44-63.26,14.73-7.96,30.43-13.37,47.07-15.82,2.22-.33,3.97-1.45,5.71-2.83C193.56,7.98,226.63-2.84,264.22,2.28c6.42.87,12.78,2.46,18.72,5.18,2.79,1.28,5.36,1.31,8.18.27,14.68-5.37,29.85-8.22,45.47-7.67,19.95.7,39.28,4.91,57.9,12.02,29.11,11.11,54.61,27.98,77.51,49.01,20.67,18.98,37.8,40.68,50.67,65.59,7.4,14.33,13.8,29.13,17.77,44.88,1.86,7.38,7.87,12.2,12.07,18.11,16.67,23.46,27.1,49.07,27.86,79.23Z" style="fill: #574093; stroke-width: 0px;"/>
      <path d="M400.2,588.45c-15.56,0-27.19-11.01-27.21-25.73-.02-14.44,12.33-26.44,27.05-26.29,14.27.14,25.52,11.52,25.52,25.79,0,15.14-10.72,26.24-25.36,26.23Z" style="fill: #564092; stroke-width: 0px;"/>
      <path d="M399.98,620.99c14.04-1.2,26.14,13.13,25.61,26.05-.6,14.84-11.7,25.61-26.87,25.38-14.63-.23-25.64-11.28-25.49-25.58.16-15.31,11.29-26.06,26.74-25.85Z" style="fill: #554092; stroke-width: 0px;"/>
      <path d="M489.14,327.99c-27.11-1.78-54.4-3.37-81.71-2.89-39.65.7-79.21,3.01-118.09,11.66-16.25,3.61-32.31,8.07-48.79,10.59-17.05,2.61-33.99,3.62-50.96-1.35-44.05-12.9-53.78-54.33-38.5-86.95,10.31-22.02,28-36.47,48.96-47.44,21.01-11,43.91-16.35,66.76-21.84,20.38-4.9,41.03-8.92,60.18-18,25.75-12.2,42.19-31.33,45.65-60.39.63-5.3,1.58-10.55,1.25-15.9-.56-9.16-6.69-15.55-14.92-15.68-8.48-.13-15.21,6.21-16.18,15.19-.55,5.13-1,10.27-1.8,15.36-2.33,14.93-11.62,24.64-24.25,31.73-12.37,6.94-26.08,9.98-39.63,13.4-10.65,2.68-21.42,4.9-32.07,7.61-3.13.8-4.48.14-5.4-2.93-2.73-9.15-6.65-17.77-12.33-25.53-5.96-8.14-13.42-14.29-23.09-17.54-7.9-2.66-15.8-5.27-24.07-6.59-7.89-1.26-14.96,3.08-16.97,10.47-2.13,7.83,1.83,16.15,9.19,18.83,3.9,1.42,7.92,2.62,11.96,3.54,14.39,3.27,20.87,13.76,24.84,26.69.61,1.98-.24,2.9-1.81,3.4-9.55,3.06-18.39,7.79-27.63,11.52-5.34,2.16-11.52-.17-17.17-1.39-11.59-2.5-21.65-7.59-28.08-18.22-.94-1.55-2.17-2.96-3.4-4.31-5.24-5.78-13.85-7.02-19.97-2.93-6.43,4.29-8.71,12.16-4.91,19.42,7.86,15.02,19.47,26.1,35.74,31.65,3.68,1.25,4.69,1.89,1.61,5.31-16.97,18.78-27.87,40.49-30.62,65.91-.28,2.62-.67,4.34-3.94,4.38-34.39.49-66.63-18.74-76.33-52.21-8.02-27.66-.62-52.3,16.72-74.42,5.46-6.96,11.82-13.1,19.24-18.06,2.25-1.5,3.93-3.51,4.86-6.17,11.57-32.98,35.39-53.12,67.64-64.38,7.88-2.75,15.91-4.94,24.21-5.96,5.64-.69,10.39-2.91,14.84-6.49,17.33-13.96,36.62-23.62,59.08-25.9,3.96-.4,7.98-.3,11.97-.34.77,0,1.88.14,2.23.64.74,1.06-.42,1.76-1.03,2.48-3.8,4.45-7.29,9.07-9.39,14.64-4.25,11.28-2.78,22.68-.58,34,1.53,7.86,3.86,15.56,8.92,22.04,7.67,9.83,22.09,9.49,27.83-.65,2.66-4.7,2.2-9.66.46-14.5-1.24-3.44-2.83-6.75-4.34-10.09-6.45-14.21-1.06-25.45,10.26-34.08,11.04-8.42,23.97-12.33,37.59-13.57,31.16-2.84,59.77,5.71,86.43,21.11,44.62,25.76,77.2,62.24,96.36,110.36,2.78,6.99,4.96,14.15,6.52,21.48,1.22,5.75,3.93,10.38,7.94,14.67,14.55,15.51,24.7,33.44,28.61,54.55,3.16,17.01,2.71,33.72-7.23,48.64-12.41,18.61-30.95,25.28-52.65,25.45Z" style="fill: #8367ab; stroke-width: 0px;"/>
      <path d="M397.58,469.38c-6.43-4.59-10.81-10.25-15.16-15.73-22.08-27.8-42.35-56.89-60.78-87.25-1.74-2.87-.97-3.56,2.04-3.93,15.53-1.9,31.07-3.69,46.7-4.63,29.46-1.78,58.94-1.39,88.42-.98,8.82.12,17.64.78,26.46.91,3.58.06,4.46,1.15,3.98,4.76-3.75,28.51-24.46,49.66-54,55.39-11.09,2.15-22.18,2.01-33.34,1.78-13.19-.27-18.22,6.56-14,19.14,3.12,9.3,7.38,18.22,9.32,27.92.12.62.17,1.25.35,2.61Z" style="fill: #8367ab; stroke-width: 0px;"/>
      <path d="M328.67,305.65c-32.47,0-56.4-16.66-67.53-46.92-1.63-4.43-3.3-4.68-7.11-3-13.26,5.86-25.28,13.35-34.75,24.58-6.42,7.62-15.18,8.61-22.51,2.83-7.12-5.61-7.99-14.74-1.88-22.58,17.05-21.87,40.19-33.89,66.49-40.65,19.74-5.07,39.99-6.78,60.16-9.12,19.74-2.29,39.18-5.73,56.98-15.43,15.83-8.62,24.93-21.07,24.23-39.73-.19-5.14-.23-10.33.93-15.43,1.87-8.22,7.71-12.98,15.58-12.61,7.39.34,13.02,5.66,13.49,14.01.99,17.51,1.04,34.99-7.14,51.27-3.19,6.35-7.59,11.74-12.95,16.33-1.96,1.67-2.73,2.85.13,4.22,14.17,6.78,29.1,9.44,42.46-4.75,9.56-10.16,20.49-8.97,26.74,2.11,3.54,6.28,2.48,13.69-3.11,19.19-23.12,22.72-49.16,26.28-78.88,12.59-6.21-2.86-12.05-6.47-16.78-11.55-2.29-2.46-4.6-2.57-7.56-1.01-16.59,8.74-34.81,10.75-53.05,12.72-9.27,1-18.5,2.3-27.75,3.38-3.94.46-4.16,2.07-2.25,5.2,11.27,18.46,26.25,23.27,47.08,19.83,7.82-1.29,15.29-4.55,23.04-6.46,8.81-2.18,16.61,2.02,19.86,10.15,3.07,7.68.15,16.07-7.84,20.44-9.91,5.42-20.9,7.63-31.95,9.34-4.93.76-9.91,1.38-14.12,1.03Z" style="fill: #574093; stroke-width: 0px;"/>
    </g>
  </g>
</svg>